<svg xmlns="http://www.w3.org/2000/svg" xmlns:xlink="http://www.w3.org/1999/xlink" width="500" zoomAndPan="magnify" viewBox="0 0 375 374.999991" height="500" preserveAspectRatio="xMidYMid meet" version="1.0"><defs><g/></defs><rect x="-37.5" width="450" fill="#ffffff" y="-37.499999" height="449.999989" fill-opacity="1"/><rect x="-37.5" width="450" fill="#ffffff" y="-37.499999" height="449.999989" fill-opacity="1"/><g fill="#000000" fill-opacity="1"><g transform="translate(45.48793, 195.761933)"><g><path d="M 6.203125 -16.734375 L 10.28125 -7.640625 L 14.359375 -16.734375 L 21.203125 -16.734375 L 12.234375 0 L 8.3125 0 L -0.65625 -16.734375 Z M 6.203125 -16.734375 "/></g></g></g><g fill="#000000" fill-opacity="1"><g transform="translate(67.301639, 195.761933)"><g><path d="M 18.890625 -7.5625 L 6.75 -7.5625 C 6.75 -6.394531 7.128906 -5.523438 7.890625 -4.953125 C 8.648438 -4.390625 9.476562 -4.109375 10.375 -4.109375 C 11.3125 -4.109375 12.050781 -4.234375 12.59375 -4.484375 C 13.132812 -4.734375 13.753906 -5.226562 14.453125 -5.96875 L 18.625 -3.875 C 16.882812 -0.96875 13.992188 0.484375 9.953125 0.484375 C 7.429688 0.484375 5.265625 -0.378906 3.453125 -2.109375 C 1.648438 -3.835938 0.75 -5.914062 0.75 -8.34375 C 0.75 -10.78125 1.648438 -12.867188 3.453125 -14.609375 C 5.265625 -16.347656 7.429688 -17.21875 9.953125 -17.21875 C 12.609375 -17.21875 14.765625 -16.453125 16.421875 -14.921875 C 18.085938 -13.390625 18.921875 -11.203125 18.921875 -8.359375 C 18.921875 -7.960938 18.910156 -7.695312 18.890625 -7.5625 Z M 6.921875 -10.765625 L 13.28125 -10.765625 C 13.144531 -11.640625 12.800781 -12.304688 12.25 -12.765625 C 11.695312 -13.234375 10.984375 -13.46875 10.109375 -13.46875 C 9.148438 -13.46875 8.390625 -13.21875 7.828125 -12.71875 C 7.265625 -12.21875 6.960938 -11.566406 6.921875 -10.765625 Z M 6.921875 -10.765625 "/></g></g></g><g fill="#000000" fill-opacity="1"><g transform="translate(88.235006, 195.761933)"><g><path d="M 1.953125 0 L 1.953125 -16.734375 L 7.734375 -16.734375 L 7.734375 -14.328125 L 7.796875 -14.328125 C 7.835938 -14.410156 7.90625 -14.515625 8 -14.640625 C 8.101562 -14.773438 8.316406 -15.003906 8.640625 -15.328125 C 8.972656 -15.660156 9.320312 -15.957031 9.6875 -16.21875 C 10.0625 -16.476562 10.539062 -16.707031 11.125 -16.90625 C 11.707031 -17.113281 12.304688 -17.21875 12.921875 -17.21875 C 13.546875 -17.21875 14.160156 -17.128906 14.765625 -16.953125 C 15.378906 -16.785156 15.828125 -16.613281 16.109375 -16.4375 L 16.578125 -16.1875 L 14.15625 -11.28125 C 13.4375 -11.894531 12.4375 -12.203125 11.15625 -12.203125 C 10.457031 -12.203125 9.859375 -12.046875 9.359375 -11.734375 C 8.859375 -11.429688 8.503906 -11.0625 8.296875 -10.625 C 8.097656 -10.195312 7.953125 -9.828125 7.859375 -9.515625 C 7.773438 -9.210938 7.734375 -8.976562 7.734375 -8.8125 L 7.734375 0 Z M 1.953125 0 "/></g></g></g><g fill="#000000" fill-opacity="1"><g transform="translate(105.744831, 195.761933)"><g><path d="M 2.515625 -26.0625 C 3.191406 -26.738281 3.992188 -27.078125 4.921875 -27.078125 C 5.859375 -27.078125 6.664062 -26.738281 7.34375 -26.0625 C 8.019531 -25.394531 8.359375 -24.59375 8.359375 -23.65625 C 8.359375 -22.71875 8.019531 -21.910156 7.34375 -21.234375 C 6.664062 -20.566406 5.859375 -20.234375 4.921875 -20.234375 C 3.992188 -20.234375 3.191406 -20.566406 2.515625 -21.234375 C 1.835938 -21.910156 1.5 -22.71875 1.5 -23.65625 C 1.5 -24.59375 1.835938 -25.394531 2.515625 -26.0625 Z M 1.953125 -16.734375 L 1.953125 0 L 7.734375 0 L 7.734375 -16.734375 Z M 1.953125 -16.734375 "/></g></g></g><g fill="#000000" fill-opacity="1"><g transform="translate(116.864035, 195.761933)"><g><path d="M 2.9375 -16.734375 L 2.9375 -20.296875 C 2.957031 -22.796875 3.539062 -24.796875 4.6875 -26.296875 C 5.84375 -27.796875 7.445312 -28.546875 9.5 -28.546875 C 10.363281 -28.546875 11.191406 -28.421875 11.984375 -28.171875 C 12.785156 -27.921875 13.359375 -27.664062 13.703125 -27.40625 L 14.25 -27.046875 L 12.234375 -22.96875 C 11.710938 -23.269531 11.132812 -23.421875 10.5 -23.421875 C 9.78125 -23.421875 9.300781 -23.175781 9.0625 -22.6875 C 8.820312 -22.195312 8.703125 -21.34375 8.703125 -20.125 L 8.703125 -16.734375 L 12.5625 -16.734375 L 12.5625 -12.328125 L 8.703125 -12.328125 L 8.703125 0 L 2.9375 0 L 2.9375 -12.328125 L 0.515625 -12.328125 L 0.515625 -16.734375 Z M 2.9375 -16.734375 "/></g></g></g><g fill="#000000" fill-opacity="1"><g transform="translate(130.363418, 195.761933)"><g><path d="M 2.515625 -26.0625 C 3.191406 -26.738281 3.992188 -27.078125 4.921875 -27.078125 C 5.859375 -27.078125 6.664062 -26.738281 7.34375 -26.0625 C 8.019531 -25.394531 8.359375 -24.59375 8.359375 -23.65625 C 8.359375 -22.71875 8.019531 -21.910156 7.34375 -21.234375 C 6.664062 -20.566406 5.859375 -20.234375 4.921875 -20.234375 C 3.992188 -20.234375 3.191406 -20.566406 2.515625 -21.234375 C 1.835938 -21.910156 1.5 -22.71875 1.5 -23.65625 C 1.5 -24.59375 1.835938 -25.394531 2.515625 -26.0625 Z M 1.953125 -16.734375 L 1.953125 0 L 7.734375 0 L 7.734375 -16.734375 Z M 1.953125 -16.734375 "/></g></g></g><g fill="#000000" fill-opacity="1"><g transform="translate(141.482622, 195.761933)"><g><path d="M 18.890625 -7.5625 L 6.75 -7.5625 C 6.75 -6.394531 7.128906 -5.523438 7.890625 -4.953125 C 8.648438 -4.390625 9.476562 -4.109375 10.375 -4.109375 C 11.3125 -4.109375 12.050781 -4.234375 12.59375 -4.484375 C 13.132812 -4.734375 13.753906 -5.226562 14.453125 -5.96875 L 18.625 -3.875 C 16.882812 -0.96875 13.992188 0.484375 9.953125 0.484375 C 7.429688 0.484375 5.265625 -0.378906 3.453125 -2.109375 C 1.648438 -3.835938 0.75 -5.914062 0.75 -8.34375 C 0.75 -10.78125 1.648438 -12.867188 3.453125 -14.609375 C 5.265625 -16.347656 7.429688 -17.21875 9.953125 -17.21875 C 12.609375 -17.21875 14.765625 -16.453125 16.421875 -14.921875 C 18.085938 -13.390625 18.921875 -11.203125 18.921875 -8.359375 C 18.921875 -7.960938 18.910156 -7.695312 18.890625 -7.5625 Z M 6.921875 -10.765625 L 13.28125 -10.765625 C 13.144531 -11.640625 12.800781 -12.304688 12.25 -12.765625 C 11.695312 -13.234375 10.984375 -13.46875 10.109375 -13.46875 C 9.148438 -13.46875 8.390625 -13.21875 7.828125 -12.71875 C 7.265625 -12.21875 6.960938 -11.566406 6.921875 -10.765625 Z M 6.921875 -10.765625 "/></g></g></g><g fill="#000000" fill-opacity="1"><g transform="translate(162.415986, 195.761933)"><g><path d="M 3.09375 -2.0625 C 1.53125 -3.769531 0.75 -5.863281 0.75 -8.34375 C 0.75 -10.832031 1.53125 -12.929688 3.09375 -14.640625 C 4.664062 -16.359375 6.65625 -17.21875 9.0625 -17.21875 C 11.28125 -17.21875 13.109375 -16.523438 14.546875 -15.140625 L 14.546875 -28.0625 L 20.328125 -28.0625 L 20.328125 0 L 14.609375 0 L 14.609375 -1.890625 L 14.546875 -1.890625 C 13.109375 -0.304688 11.28125 0.484375 9.0625 0.484375 C 6.65625 0.484375 4.664062 -0.363281 3.09375 -2.0625 Z M 8.015625 -11.1875 C 7.265625 -10.445312 6.890625 -9.5 6.890625 -8.34375 C 6.890625 -7.195312 7.242188 -6.257812 7.953125 -5.53125 C 8.671875 -4.800781 9.617188 -4.4375 10.796875 -4.4375 C 11.929688 -4.4375 12.863281 -4.804688 13.59375 -5.546875 C 14.320312 -6.285156 14.6875 -7.222656 14.6875 -8.359375 C 14.6875 -9.503906 14.3125 -10.445312 13.5625 -11.1875 C 12.8125 -11.925781 11.890625 -12.296875 10.796875 -12.296875 C 9.691406 -12.296875 8.765625 -11.925781 8.015625 -11.1875 Z M 8.015625 -11.1875 "/></g></g></g><g fill="#000000" fill-opacity="1"><g transform="translate(185.957764, 195.761933)"><g/></g></g><g fill="#000000" fill-opacity="1"><g transform="translate(196.131413, 195.761933)"><g><path d="M 19.171875 -14.640625 C 20.742188 -12.929688 21.53125 -10.832031 21.53125 -8.34375 C 21.53125 -5.863281 20.742188 -3.769531 19.171875 -2.0625 C 17.609375 -0.363281 15.625 0.484375 13.21875 0.484375 C 11 0.484375 9.171875 -0.304688 7.734375 -1.890625 L 7.671875 -1.890625 L 7.671875 0 L 1.953125 0 L 1.953125 -28.0625 L 7.734375 -28.0625 L 7.734375 -15.140625 C 9.171875 -16.523438 11 -17.21875 13.21875 -17.21875 C 15.625 -17.21875 17.609375 -16.359375 19.171875 -14.640625 Z M 14.328125 -5.53125 C 15.046875 -6.257812 15.40625 -7.195312 15.40625 -8.34375 C 15.40625 -9.5 15.023438 -10.445312 14.265625 -11.1875 C 13.515625 -11.925781 12.585938 -12.296875 11.484375 -12.296875 C 10.398438 -12.296875 9.484375 -11.925781 8.734375 -11.1875 C 7.984375 -10.445312 7.609375 -9.503906 7.609375 -8.359375 C 7.609375 -7.222656 7.96875 -6.285156 8.6875 -5.546875 C 9.414062 -4.804688 10.347656 -4.4375 11.484375 -4.4375 C 12.660156 -4.4375 13.609375 -4.800781 14.328125 -5.53125 Z M 14.328125 -5.53125 "/></g></g></g><g fill="#000000" fill-opacity="1"><g transform="translate(219.673199, 195.761933)"><g><path d="M 14.65625 -16.734375 L 21.296875 -16.734375 L 8.15625 8.484375 L 1.5 8.484375 L 7.28125 -2.609375 L -0.65625 -16.734375 L 6 -16.734375 L 10.671875 -8.15625 Z M 14.65625 -16.734375 "/></g></g></g><g fill="#000000" fill-opacity="1"><g transform="translate(241.584717, 195.761933)"><g/></g></g><g fill="#000000" fill-opacity="1"><g transform="translate(251.758366, 195.761933)"><g><path d="M 10.375 0 L -0.90625 -26.921875 L 6 -26.921875 L 12.78125 -9.234375 L 19.578125 -26.921875 L 26.484375 -26.921875 L 15.203125 0 Z M 10.375 0 "/></g></g></g><g fill="#000000" fill-opacity="1"><g transform="translate(278.593261, 195.761933)"><g><path d="M 1.953125 -26.921875 L 9.75 -26.921875 C 13.488281 -26.921875 16.6875 -25.640625 19.34375 -23.078125 C 22 -20.523438 23.328125 -17.320312 23.328125 -13.46875 C 23.328125 -9.601562 22.003906 -6.390625 19.359375 -3.828125 C 16.722656 -1.273438 13.519531 0 9.75 0 L 1.953125 0 Z M 8.09375 -5.484375 L 9.03125 -5.484375 C 11.269531 -5.484375 13.101562 -6.238281 14.53125 -7.75 C 15.957031 -9.257812 16.679688 -11.15625 16.703125 -13.4375 C 16.703125 -15.71875 15.988281 -17.617188 14.5625 -19.140625 C 13.144531 -20.671875 11.300781 -21.4375 9.03125 -21.4375 L 8.09375 -21.4375 Z M 8.09375 -5.484375 "/></g></g></g><g fill="#000000" fill-opacity="1"><g transform="translate(303.928321, 195.761933)"><g><path d="M 10.375 0 L -0.90625 -26.921875 L 6 -26.921875 L 12.78125 -9.234375 L 19.578125 -26.921875 L 26.484375 -26.921875 L 15.203125 0 Z M 10.375 0 "/></g></g></g></svg>