<svg xmlns="http://www.w3.org/2000/svg" xmlns:xlink="http://www.w3.org/1999/xlink" width="500" zoomAndPan="magnify" viewBox="0 0 375 337.499995" height="450" preserveAspectRatio="xMidYMid meet" version="1.0"><defs><clipPath id="21585452c0"><path d="M 0.277344 18.382812 L 374.722656 18.382812 L 374.722656 336.660156 L 0.277344 336.660156 Z M 0.277344 18.382812 " clip-rule="nonzero"/></clipPath><clipPath id="6863439828"><path d="M 0.277344 18.382812 L 374.722656 18.382812 L 374.722656 333 L 0.277344 333 Z M 0.277344 18.382812 " clip-rule="nonzero"/></clipPath><clipPath id="68075b606f"><path d="M 12 107 L 125 107 L 125 336.660156 L 12 336.660156 Z M 12 107 " clip-rule="nonzero"/></clipPath></defs><g clip-path="url(#21585452c0)"><path fill="#fdfdfd" d="M 367.617188 18.382812 L 7.378906 18.382812 C 3.507812 18.382812 0.371094 21.519531 0.371094 25.386719 L 0.371094 259.761719 C 0.371094 263.632812 3.507812 266.769531 7.378906 266.769531 L 44.894531 266.769531 C 44.847656 293.445312 44.992188 319.402344 44.992188 319.402344 C 43.816406 326.902344 44.972656 331.902344 44.972656 331.902344 C 44.972656 331.902344 52.148438 333.644531 52.472656 333.859375 C 52.535156 333.902344 52.710938 334.035156 52.953125 334.230469 C 55.222656 336.027344 58.035156 337.011719 60.925781 337.011719 L 80.109375 337.011719 C 81.355469 337.011719 82.367188 336 82.367188 334.753906 C 82.367188 333.820312 81.796875 332.984375 80.929688 332.648438 L 80.535156 332.492188 C 82.652344 333.019531 85.433594 333.726562 85.632812 333.859375 C 85.691406 333.902344 85.867188 334.035156 86.113281 334.230469 C 88.378906 336.027344 91.191406 337.011719 94.085938 337.011719 L 113.265625 337.011719 C 114.515625 337.011719 115.527344 336 115.527344 334.753906 C 115.527344 333.820312 114.953125 332.984375 114.085938 332.648438 L 104.792969 329.027344 C 102.511719 328.140625 100.558594 326.566406 99.203125 324.527344 L 95.675781 319.203125 C 95.675781 319.203125 95.890625 298.683594 95.980469 275.394531 L 110.21875 266.769531 L 155.273438 266.769531 L 185.191406 323.300781 L 147.578125 323.300781 C 144.902344 323.300781 142.734375 325.46875 142.734375 328.144531 C 142.734375 330.828125 144.910156 332.996094 147.59375 332.992188 L 271.203125 332.628906 C 275.039062 332.621094 277.488281 328.539062 275.695312 325.148438 L 244.800781 266.769531 L 367.617188 266.769531 C 371.488281 266.769531 374.625 263.632812 374.625 259.761719 L 374.625 25.386719 C 374.621094 21.519531 371.484375 18.382812 367.617188 18.382812 Z M 78.054688 331.53125 L 71.636719 329.03125 C 69.351562 328.140625 67.398438 326.566406 66.046875 324.527344 L 62.648438 319.402344 L 62.886719 319.402344 L 66.765625 273.652344 L 75.386719 287.875 L 75.472656 287.828125 L 78.148438 319.402344 C 77.15625 325.722656 77.824219 330.257812 78.054688 331.53125 Z M 78.054688 331.53125 " fill-opacity="1" fill-rule="nonzero"/></g><path fill="#737373" d="M 189.164062 218.925781 L 174.875 227.585938 L 173.089844 228.667969 L 129.765625 254.921875 L 110.21875 266.769531 L 95.980469 275.394531 L 75.472656 287.824219 L 75.386719 287.875 L 66.769531 273.652344 L 45.046875 237.808594 L 39.507812 228.667969 L 38.851562 227.585938 L 33.898438 219.414062 L 32.816406 217.628906 L 29.117188 211.527344 L 106.675781 227.84375 C 113.28125 229.234375 119.640625 225.378906 121.46875 218.882812 L 142.894531 142.574219 L 152.125 157.804688 L 153.207031 159.589844 L 154.78125 162.191406 L 153.433594 163.933594 C 152.796875 164.753906 152.539062 165.808594 152.726562 166.828125 L 153.007812 168.371094 C 153.230469 169.589844 153.933594 170.671875 154.953125 171.375 L 158.226562 173.632812 C 159.300781 174.371094 160.675781 174.527344 161.890625 174.042969 L 161.949219 174.015625 L 164.199219 177.730469 L 164.792969 178.707031 L 169.664062 186.746094 L 170.253906 187.71875 Z M 189.164062 218.925781 " fill-opacity="1" fill-rule="nonzero"/><path fill="#231f20" d="M 142.742188 142.667969 L 142.894531 142.574219 L 121.464844 218.882812 C 119.640625 225.378906 113.28125 229.234375 106.675781 227.84375 L 29.117188 211.527344 L 32.816406 209.285156 L 32.816406 180.761719 C 33.175781 180.890625 33.53125 181.019531 33.898438 181.148438 L 33.898438 208.628906 L 46.117188 201.226562 C 46.5625 193.507812 47.046875 188.703125 47.410156 185.863281 C 52.640625 187.664062 56.496094 188.96875 56.496094 188.96875 L 58.316406 185.238281 L 61.628906 187.089844 C 63.171875 187.953125 64.730469 188.636719 66.238281 189.03125 C 67.761719 189.429688 69.234375 189.527344 70.574219 189.203125 C 70.574219 189.203125 74.738281 193.476562 76.976562 194.660156 C 79.816406 196.160156 81.632812 195.816406 82.609375 195.078125 C 83.589844 194.339844 84 192.683594 83.554688 191.960938 L 77.535156 182.183594 L 93 172.8125 L 104.226562 166.007812 L 124.796875 153.542969 L 141.65625 143.324219 L 141.65625 59.980469 L 33.898438 59.980469 L 33.898438 120.628906 C 33.542969 121.144531 33.179688 121.679688 32.816406 122.238281 L 32.816406 59.4375 C 32.816406 59.136719 33.054688 58.894531 33.355469 58.894531 L 142.199219 58.894531 C 142.5 58.894531 142.742188 59.136719 142.742188 59.4375 Z M 33.898438 227.585938 L 33.898438 219.414062 L 32.816406 217.628906 L 32.816406 228.128906 C 32.816406 228.425781 33.054688 228.667969 33.355469 228.667969 L 39.507812 228.667969 L 38.851562 227.585938 Z M 152.664062 59.980469 L 342.417969 59.980469 C 342.71875 59.980469 342.960938 59.738281 342.960938 59.4375 C 342.960938 59.136719 342.71875 58.894531 342.417969 58.894531 L 152.664062 58.894531 C 152.367188 58.894531 152.125 59.136719 152.125 59.4375 C 152.125 59.738281 152.367188 59.980469 152.664062 59.980469 Z M 342.417969 78.84375 L 152.664062 78.84375 C 152.367188 78.84375 152.125 79.085938 152.125 79.382812 L 152.125 157.804688 L 153.207031 159.589844 L 153.207031 79.925781 L 341.875 79.925781 L 341.875 227.585938 L 174.875 227.585938 L 173.085938 228.667969 L 342.417969 228.667969 C 342.71875 228.667969 342.960938 228.425781 342.960938 228.125 L 342.960938 79.382812 C 342.957031 79.085938 342.714844 78.84375 342.417969 78.84375 Z M 180.628906 95.917969 L 332.105469 95.917969 C 332.402344 95.917969 332.644531 95.675781 332.644531 95.378906 C 332.644531 95.078125 332.402344 94.835938 332.105469 94.835938 L 180.628906 94.835938 C 180.328125 94.835938 180.085938 95.078125 180.085938 95.378906 C 180.085938 95.675781 180.328125 95.917969 180.628906 95.917969 Z M 180.628906 117.566406 L 332.105469 117.566406 C 332.402344 117.566406 332.644531 117.324219 332.644531 117.023438 C 332.644531 116.722656 332.402344 116.480469 332.105469 116.480469 L 180.628906 116.480469 C 180.328125 116.480469 180.085938 116.722656 180.085938 117.023438 C 180.085938 117.324219 180.328125 117.566406 180.628906 117.566406 Z M 180.628906 139.210938 L 332.105469 139.210938 C 332.402344 139.210938 332.644531 138.96875 332.644531 138.667969 C 332.644531 138.371094 332.402344 138.128906 332.105469 138.128906 L 180.628906 138.128906 C 180.328125 138.128906 180.085938 138.371094 180.085938 138.667969 C 180.085938 138.96875 180.328125 139.210938 180.628906 139.210938 Z M 162.4375 160.332031 C 162.4375 157.015625 165.136719 154.316406 168.453125 154.316406 C 171.773438 154.316406 174.472656 157.015625 174.472656 160.332031 C 174.472656 163.648438 171.773438 166.347656 168.453125 166.347656 C 165.136719 166.347656 162.4375 163.648438 162.4375 160.332031 Z M 163.519531 160.332031 C 163.519531 163.054688 165.734375 165.265625 168.453125 165.265625 C 171.175781 165.265625 173.386719 163.054688 173.386719 160.332031 C 173.386719 157.613281 171.175781 155.398438 168.453125 155.398438 C 165.734375 155.398438 163.519531 157.613281 163.519531 160.332031 Z M 180.628906 160.855469 L 332.105469 160.855469 C 332.402344 160.855469 332.644531 160.613281 332.644531 160.316406 C 332.644531 160.015625 332.402344 159.773438 332.105469 159.773438 L 180.628906 159.773438 C 180.328125 159.773438 180.085938 160.015625 180.085938 160.316406 C 180.085938 160.613281 180.328125 160.855469 180.628906 160.855469 Z M 168.453125 175.960938 C 166.792969 175.960938 165.289062 176.640625 164.199219 177.730469 L 164.789062 178.707031 C 165.695312 177.695312 166.992188 177.042969 168.453125 177.042969 C 171.171875 177.042969 173.386719 179.257812 173.386719 181.980469 C 173.386719 184.28125 171.796875 186.203125 169.660156 186.746094 L 170.25 187.71875 C 172.695312 186.953125 174.46875 184.671875 174.46875 181.980469 C 174.46875 178.660156 171.773438 175.960938 168.453125 175.960938 Z M 180.628906 182.503906 L 332.105469 182.503906 C 332.402344 182.503906 332.644531 182.261719 332.644531 181.960938 C 332.644531 181.660156 332.402344 181.417969 332.105469 181.417969 L 180.628906 181.417969 C 180.328125 181.417969 180.085938 181.660156 180.085938 181.960938 C 180.085938 182.261719 180.328125 182.503906 180.628906 182.503906 Z M 180.628906 204.148438 L 332.105469 204.148438 C 332.402344 204.148438 332.644531 203.90625 332.644531 203.605469 C 332.644531 203.308594 332.402344 203.066406 332.105469 203.066406 L 180.628906 203.066406 C 180.328125 203.066406 180.085938 203.308594 180.085938 203.605469 C 180.085938 203.90625 180.328125 204.148438 180.628906 204.148438 Z M 168.453125 100.871094 C 171.476562 100.871094 173.929688 98.417969 173.929688 95.394531 C 173.929688 92.371094 171.476562 89.917969 168.453125 89.917969 C 165.429688 89.917969 162.980469 92.371094 162.980469 95.394531 C 162.980469 98.417969 165.429688 100.871094 168.453125 100.871094 Z M 168.453125 122.515625 C 171.476562 122.515625 173.929688 120.0625 173.929688 117.039062 C 173.929688 114.015625 171.476562 111.566406 168.453125 111.566406 C 165.429688 111.566406 162.980469 114.015625 162.980469 117.039062 C 162.980469 120.0625 165.429688 122.515625 168.453125 122.515625 Z M 168.453125 144.160156 C 171.476562 144.160156 173.929688 141.710938 173.929688 138.6875 C 173.929688 135.664062 171.476562 133.210938 168.453125 133.210938 C 165.429688 133.210938 162.980469 135.664062 162.980469 138.6875 C 162.980469 141.710938 165.429688 144.160156 168.453125 144.160156 Z M 66.109375 83.761719 C 68.453125 83.585938 70.175781 84.621094 71.203125 85.507812 L 72.652344 75.894531 C 73.066406 75.960938 73.519531 75.992188 73.988281 76 C 80.140625 76.539062 83.078125 78.289062 84.429688 79.585938 C 84.503906 80.457031 84.546875 81.234375 84.605469 81.867188 C 84.65625 82.386719 84.960938 82.925781 85.402344 83.445312 C 87.015625 82.175781 89.929688 79.238281 89.035156 75.035156 C 87.410156 67.410156 78.203125 69.210938 72.714844 70.855469 C 62.492188 69.703125 58.078125 74.15625 56.597656 80.566406 C 55.121094 86.980469 62.910156 97.628906 62.910156 97.628906 L 65.585938 92.734375 C 64.671875 92.230469 63.769531 91.472656 63.023438 90.3125 C 61.535156 88.015625 62.113281 84.0625 66.109375 83.761719 Z M 44.929688 254.925781 C 44.914062 258.832031 44.902344 262.808594 44.894531 266.769531 C 44.847656 293.445312 44.992188 319.402344 44.992188 319.402344 L 62.886719 319.402344 L 66.765625 273.652344 L 45.046875 237.808594 C 44.992188 243.164062 44.953125 248.964844 44.929688 254.925781 Z M 78.148438 319.402344 L 95.671875 319.203125 C 95.671875 319.203125 95.890625 298.683594 95.980469 275.394531 L 75.472656 287.824219 Z M 78.148438 319.402344 " fill-opacity="1" fill-rule="nonzero"/><g clip-path="url(#6863439828)"><path fill="#08bf99" d="M 374.621094 25.386719 L 374.621094 259.761719 C 374.621094 263.632812 371.484375 266.769531 367.617188 266.769531 L 244.796875 266.769531 L 275.695312 325.148438 C 277.488281 328.539062 275.039062 332.621094 271.203125 332.632812 L 147.59375 332.992188 C 144.910156 333 142.734375 330.828125 142.734375 328.144531 C 142.734375 325.46875 144.902344 323.300781 147.578125 323.300781 L 185.191406 323.300781 L 155.269531 266.769531 L 110.21875 266.769531 L 129.761719 254.921875 L 355.769531 254.921875 C 359.640625 254.921875 362.777344 251.785156 362.777344 247.917969 L 362.777344 37.230469 C 362.777344 33.363281 359.640625 30.226562 355.769531 30.226562 L 19.222656 30.226562 C 15.351562 30.226562 12.214844 33.363281 12.214844 37.230469 L 12.214844 247.917969 C 12.214844 251.789062 15.351562 254.925781 19.222656 254.925781 L 44.929688 254.925781 C 44.914062 258.832031 44.902344 262.808594 44.894531 266.769531 L 7.378906 266.769531 C 3.507812 266.769531 0.371094 263.632812 0.371094 259.761719 L 0.371094 25.386719 C 0.371094 21.519531 3.507812 18.382812 7.378906 18.382812 L 367.617188 18.382812 C 371.484375 18.382812 374.621094 21.519531 374.621094 25.386719 Z M 88.722656 86.015625 C 87.554688 85.351562 86.226562 84.425781 85.402344 83.445312 C 84.960938 82.925781 84.65625 82.390625 84.605469 81.867188 C 84.546875 81.234375 84.503906 80.457031 84.429688 79.585938 C 83.078125 78.289062 80.140625 76.539062 73.988281 76 C 73.519531 75.992188 73.066406 75.964844 72.652344 75.894531 L 71.203125 85.511719 C 70.175781 84.625 68.453125 83.585938 66.109375 83.761719 C 62.113281 84.0625 61.535156 88.015625 63.019531 90.3125 C 63.769531 91.472656 64.671875 92.230469 65.585938 92.734375 L 62.910156 97.628906 L 62.550781 107.945312 L 78.074219 107.945312 L 78.296875 104.347656 C 78.394531 102.804688 79.539062 101.535156 81.0625 101.285156 L 84.886719 100.652344 C 86.378906 100.328125 87.40625 98.953125 87.289062 97.429688 L 86.921875 92.625 C 86.851562 91.703125 87.171875 90.796875 87.796875 90.121094 L 88.910156 88.921875 C 89.738281 88.09375 89.738281 86.59375 88.722656 86.015625 Z M 154.953125 171.375 L 158.226562 173.632812 C 159.300781 174.371094 160.675781 174.527344 161.886719 174.042969 L 161.949219 174.015625 L 162.761719 173.691406 C 163.660156 173.332031 164.015625 172.25 163.507812 171.429688 L 157.648438 161.921875 C 157.078125 160.996094 155.757812 160.925781 155.09375 161.785156 L 154.78125 162.1875 L 153.429688 163.929688 C 152.792969 164.753906 152.539062 165.804688 152.726562 166.828125 L 153.007812 168.367188 C 153.230469 169.589844 153.929688 170.671875 154.953125 171.375 Z M 77.539062 182.183594 L 76.125 179.886719 C 75.363281 178.648438 74.113281 177.792969 72.683594 177.527344 L 62.964844 175.730469 L 58.320312 185.238281 L 61.628906 187.089844 C 63.171875 187.953125 64.730469 188.636719 66.238281 189.03125 C 67.765625 189.429688 69.238281 189.527344 70.574219 189.203125 C 70.574219 189.203125 74.742188 193.476562 76.980469 194.660156 C 79.816406 196.160156 81.632812 195.816406 82.613281 195.078125 C 83.59375 194.339844 84 192.683594 83.554688 191.960938 Z M 77.539062 182.183594 " fill-opacity="1" fill-rule="nonzero"/></g><g clip-path="url(#68075b606f)"><path fill="#545454" d="M 115.523438 334.753906 C 115.523438 336 114.511719 337.011719 113.265625 337.011719 L 94.082031 337.011719 C 91.191406 337.011719 88.378906 336.027344 86.109375 334.230469 C 85.867188 334.035156 85.691406 333.902344 85.632812 333.859375 C 85.429688 333.726562 82.652344 333.019531 80.535156 332.496094 L 80.925781 332.648438 C 81.796875 332.988281 82.367188 333.824219 82.367188 334.753906 C 82.367188 336 81.355469 337.011719 80.109375 337.011719 L 60.925781 337.011719 C 58.03125 337.011719 55.222656 336.027344 52.953125 334.230469 C 52.710938 334.039062 52.535156 333.902344 52.472656 333.859375 C 52.148438 333.644531 44.972656 331.90625 44.972656 331.90625 C 44.972656 331.90625 43.8125 326.902344 44.992188 319.402344 L 62.648438 319.402344 L 66.046875 324.527344 C 67.398438 326.570312 69.351562 328.140625 71.636719 329.03125 L 78.054688 331.53125 C 77.824219 330.257812 77.15625 325.722656 78.148438 319.402344 L 95.671875 319.203125 L 99.203125 324.527344 C 100.558594 326.566406 102.507812 328.140625 104.792969 329.03125 L 114.085938 332.648438 C 114.953125 332.984375 115.523438 333.820312 115.523438 334.753906 Z M 47.410156 185.863281 C 43.351562 184.464844 38.46875 182.769531 33.898438 181.148438 C 33.535156 181.019531 33.175781 180.890625 32.816406 180.761719 C 27.015625 178.695312 21.886719 176.796875 19.882812 175.863281 C 14.175781 173.214844 10.714844 168.734375 13.363281 160.789062 C 15.484375 154.429688 25.167969 133.859375 32.816406 122.238281 C 33.179688 121.679688 33.542969 121.144531 33.898438 120.632812 C 35.398438 118.46875 36.796875 116.710938 38.011719 115.5625 C 45.550781 108.429688 62.550781 107.945312 62.554688 107.945312 L 78.078125 107.945312 C 78.078125 107.945312 91.652344 108.671875 97.542969 113.421875 C 103.4375 118.175781 115.792969 150.867188 115.792969 150.867188 L 124.800781 153.542969 L 104.226562 166.011719 C 101.601562 164.472656 99.3125 162.085938 96.832031 158.574219 C 95.761719 157.066406 94.429688 154.824219 93.003906 152.265625 L 93.003906 172.8125 L 77.539062 182.183594 L 76.125 179.890625 C 75.363281 178.652344 74.113281 177.792969 72.683594 177.53125 L 62.964844 175.734375 L 58.320312 185.238281 L 56.496094 188.972656 C 56.496094 188.96875 52.640625 187.664062 47.410156 185.863281 Z M 47.15625 165.992188 L 46.28125 147.144531 L 37.746094 160.316406 Z M 47.15625 165.992188 " fill-opacity="1" fill-rule="nonzero"/></g></svg>