<svg xmlns="http://www.w3.org/2000/svg" xmlns:xlink="http://www.w3.org/1999/xlink" width="500" zoomAndPan="magnify" viewBox="0 0 375 374.999991" height="500" preserveAspectRatio="xMidYMid meet" version="1.0"><defs><clipPath id="1cd9f61890"><path d="M 41.769531 55 L 320 55 L 320 333.519531 L 41.769531 333.519531 Z M 41.769531 55 " clip-rule="nonzero"/></clipPath><clipPath id="499fbd0e70"><path d="M 105 43 L 333.519531 43 L 333.519531 253 L 105 253 Z M 105 43 " clip-rule="nonzero"/></clipPath></defs><rect x="-37.5" width="450" fill="#ffffff" y="-37.499999" height="449.999989" fill-opacity="1"/><rect x="-37.5" width="450" fill="#ffffff" y="-37.499999" height="449.999989" fill-opacity="1"/><g clip-path="url(#1cd9f61890)"><path fill="#08bf99" d="M 301.957031 127.664062 L 280.382812 149.238281 C 286.609375 162.996094 290.070312 178.277344 290.070312 194.359375 C 290.070312 254.941406 240.96875 304.042969 180.386719 304.042969 C 119.804688 304.042969 70.703125 254.941406 70.703125 194.359375 C 70.703125 133.777344 119.804688 84.675781 180.386719 84.675781 C 195.53125 84.675781 209.945312 87.746094 223.066406 93.292969 L 244.796875 71.5625 C 225.558594 61.441406 203.636719 55.722656 180.378906 55.722656 C 103.808594 55.722656 41.738281 117.792969 41.738281 194.367188 C 41.738281 270.9375 103.808594 333.007812 180.378906 333.007812 C 256.949219 333.007812 319.019531 270.9375 319.019531 194.367188 C 319.027344 170.183594 312.84375 147.449219 301.957031 127.664062 Z M 301.957031 127.664062 " fill-opacity="1" fill-rule="nonzero"/></g><g clip-path="url(#499fbd0e70)"><path fill="#08bf99" d="M 168.886719 252.792969 C 167.027344 248.921875 165.453125 245.136719 163.460938 241.589844 C 156.03125 228.363281 148.699219 215.066406 140.839844 202.097656 C 136.480469 194.917969 130.871094 188.570312 124.089844 183.441406 C 118.652344 179.324219 112.792969 176.601562 105.347656 178.660156 C 105.652344 177.816406 105.792969 177.203125 106.082031 176.667969 C 109.507812 170.40625 113.417969 164.511719 119.082031 159.992188 C 126.765625 153.863281 134.988281 152.949219 143.996094 157.019531 C 153.285156 161.222656 160.316406 168.101562 166.757812 175.632812 C 171.929688 181.691406 176.636719 188.144531 181.621094 194.507812 C 181.722656 194.433594 181.992188 194.316406 182.148438 194.109375 C 191.984375 181.132812 201.632812 168.007812 211.683594 155.199219 C 233.59375 127.265625 256.253906 99.941406 281.515625 74.945312 C 290.296875 66.257812 299.90625 58.355469 309.535156 50.589844 C 313.257812 47.59375 317.933594 45.5625 322.460938 43.851562 C 327.488281 41.957031 330.695312 43.488281 333.183594 47.933594 C 332.578125 48.613281 331.953125 49.363281 331.273438 50.066406 C 304.5 77.726562 280.496094 107.625 258.878906 139.457031 C 238.820312 168.984375 220.660156 199.664062 204.039062 231.246094 C 202.625 233.929688 200.835938 235.808594 198.121094 237.207031 C 188.382812 242.253906 178.746094 247.515625 168.886719 252.792969 Z M 168.886719 252.792969 " fill-opacity="1" fill-rule="nonzero"/></g></svg>