<svg xmlns="http://www.w3.org/2000/svg" xmlns:xlink="http://www.w3.org/1999/xlink" width="500" zoomAndPan="magnify" viewBox="0 0 375 374.999991" height="500" preserveAspectRatio="xMidYMid meet" version="1.0"><defs><g/><clipPath id="8fbc3ac844"><path d="M 14.800781 139 L 95 139 L 95 219.011719 L 14.800781 219.011719 Z M 14.800781 139 " clip-rule="nonzero"/></clipPath><clipPath id="392ceb88b8"><path d="M 33 136 L 98.050781 136 L 98.050781 197 L 33 197 Z M 33 136 " clip-rule="nonzero"/></clipPath></defs><rect x="-37.5" width="450" fill="#ffffff" y="-37.499999" height="449.999989" fill-opacity="1"/><rect x="-37.5" width="450" fill="#ffffff" y="-37.499999" height="449.999989" fill-opacity="1"/><g clip-path="url(#8fbc3ac844)"><path fill="#08bf99" d="M 89.339844 160.367188 L 83.160156 166.546875 C 84.945312 170.488281 85.933594 174.867188 85.933594 179.472656 C 85.933594 196.828125 71.867188 210.894531 54.511719 210.894531 C 37.15625 210.894531 23.089844 196.828125 23.089844 179.472656 C 23.089844 162.117188 37.15625 148.050781 54.511719 148.050781 C 58.851562 148.050781 62.980469 148.929688 66.738281 150.519531 L 72.964844 144.296875 C 67.453125 141.394531 61.171875 139.757812 54.511719 139.757812 C 32.574219 139.757812 14.792969 157.539062 14.792969 179.476562 C 14.792969 201.410156 32.574219 219.195312 54.511719 219.195312 C 76.445312 219.195312 94.230469 201.410156 94.230469 179.476562 C 94.230469 172.546875 92.460938 166.035156 89.339844 160.367188 Z M 89.339844 160.367188 " fill-opacity="1" fill-rule="nonzero"/></g><g clip-path="url(#392ceb88b8)"><path fill="#08bf99" d="M 51.21875 196.214844 C 50.6875 195.105469 50.234375 194.019531 49.664062 193.003906 C 47.535156 189.214844 45.433594 185.40625 43.183594 181.691406 C 41.933594 179.632812 40.328125 177.816406 38.386719 176.347656 C 36.828125 175.167969 35.148438 174.386719 33.015625 174.976562 C 33.105469 174.734375 33.144531 174.558594 33.226562 174.40625 C 34.207031 172.613281 35.328125 170.921875 36.949219 169.628906 C 39.152344 167.871094 41.507812 167.609375 44.085938 168.777344 C 46.75 169.980469 48.761719 171.953125 50.609375 174.109375 C 52.089844 175.84375 53.4375 177.695312 54.867188 179.515625 C 54.894531 179.496094 54.972656 179.460938 55.019531 179.402344 C 57.835938 175.683594 60.601562 171.925781 63.480469 168.257812 C 69.753906 160.253906 76.246094 152.425781 83.484375 145.265625 C 86 142.777344 88.753906 140.511719 91.511719 138.285156 C 92.578125 137.429688 93.917969 136.847656 95.214844 136.355469 C 96.65625 135.8125 97.574219 136.253906 98.285156 137.527344 C 98.113281 137.71875 97.933594 137.9375 97.738281 138.136719 C 90.070312 146.0625 83.191406 154.625 77 163.746094 C 71.253906 172.207031 66.050781 180.992188 61.289062 190.039062 C 60.882812 190.8125 60.371094 191.347656 59.59375 191.75 C 56.804688 193.195312 54.042969 194.703125 51.21875 196.214844 Z M 51.21875 196.214844 " fill-opacity="1" fill-rule="nonzero"/></g><g fill="#000000" fill-opacity="1"><g transform="translate(107.945421, 201.399652)"><g><path d="M 5.328125 -14.375 L 8.828125 -6.5625 L 12.328125 -14.375 L 18.21875 -14.375 L 10.515625 0 L 7.140625 0 L -0.5625 -14.375 Z M 5.328125 -14.375 "/></g></g></g><g fill="#000000" fill-opacity="1"><g transform="translate(126.69054, 201.399652)"><g><path d="M 16.234375 -6.5 L 5.796875 -6.5 C 5.796875 -5.488281 6.125 -4.738281 6.78125 -4.25 C 7.4375 -3.769531 8.144531 -3.53125 8.90625 -3.53125 C 9.71875 -3.53125 10.351562 -3.632812 10.8125 -3.84375 C 11.28125 -4.0625 11.816406 -4.488281 12.421875 -5.125 L 16 -3.328125 C 14.507812 -0.828125 12.023438 0.421875 8.546875 0.421875 C 6.378906 0.421875 4.519531 -0.316406 2.96875 -1.796875 C 1.414062 -3.285156 0.640625 -5.078125 0.640625 -7.171875 C 0.640625 -9.265625 1.414062 -11.054688 2.96875 -12.546875 C 4.519531 -14.046875 6.378906 -14.796875 8.546875 -14.796875 C 10.828125 -14.796875 12.679688 -14.132812 14.109375 -12.8125 C 15.546875 -11.5 16.265625 -9.617188 16.265625 -7.171875 C 16.265625 -6.835938 16.253906 -6.613281 16.234375 -6.5 Z M 5.9375 -9.25 L 11.40625 -9.25 C 11.289062 -10 10.992188 -10.570312 10.515625 -10.96875 C 10.046875 -11.375 9.4375 -11.578125 8.6875 -11.578125 C 7.863281 -11.578125 7.207031 -11.359375 6.71875 -10.921875 C 6.238281 -10.492188 5.976562 -9.9375 5.9375 -9.25 Z M 5.9375 -9.25 "/></g></g></g><g fill="#000000" fill-opacity="1"><g transform="translate(144.679157, 201.399652)"><g><path d="M 1.6875 0 L 1.6875 -14.375 L 6.640625 -14.375 L 6.640625 -12.3125 L 6.703125 -12.3125 C 6.734375 -12.382812 6.789062 -12.472656 6.875 -12.578125 C 6.96875 -12.691406 7.148438 -12.890625 7.421875 -13.171875 C 7.703125 -13.453125 8 -13.703125 8.3125 -13.921875 C 8.632812 -14.148438 9.046875 -14.351562 9.546875 -14.53125 C 10.054688 -14.707031 10.570312 -14.796875 11.09375 -14.796875 C 11.632812 -14.796875 12.164062 -14.722656 12.6875 -14.578125 C 13.21875 -14.429688 13.601562 -14.28125 13.84375 -14.125 L 14.234375 -13.90625 L 12.171875 -9.703125 C 11.546875 -10.222656 10.6875 -10.484375 9.59375 -10.484375 C 8.988281 -10.484375 8.472656 -10.351562 8.046875 -10.09375 C 7.617188 -9.832031 7.316406 -9.515625 7.140625 -9.140625 C 6.960938 -8.765625 6.832031 -8.445312 6.75 -8.1875 C 6.675781 -7.925781 6.640625 -7.71875 6.640625 -7.5625 L 6.640625 0 Z M 1.6875 0 "/></g></g></g><g fill="#000000" fill-opacity="1"><g transform="translate(159.72583, 201.399652)"><g><path d="M 2.15625 -22.390625 C 2.738281 -22.972656 3.429688 -23.265625 4.234375 -23.265625 C 5.035156 -23.265625 5.722656 -22.972656 6.296875 -22.390625 C 6.878906 -21.816406 7.171875 -21.128906 7.171875 -20.328125 C 7.171875 -19.523438 6.878906 -18.832031 6.296875 -18.25 C 5.722656 -17.664062 5.035156 -17.375 4.234375 -17.375 C 3.429688 -17.375 2.738281 -17.664062 2.15625 -18.25 C 1.582031 -18.832031 1.296875 -19.523438 1.296875 -20.328125 C 1.296875 -21.128906 1.582031 -21.816406 2.15625 -22.390625 Z M 1.6875 -14.375 L 1.6875 0 L 6.640625 0 L 6.640625 -14.375 Z M 1.6875 -14.375 "/></g></g></g><g fill="#000000" fill-opacity="1"><g transform="translate(169.280868, 201.399652)"><g><path d="M 2.515625 -14.375 L 2.515625 -17.4375 C 2.535156 -19.582031 3.039062 -21.300781 4.03125 -22.59375 C 5.019531 -23.882812 6.394531 -24.53125 8.15625 -24.53125 C 8.90625 -24.53125 9.617188 -24.421875 10.296875 -24.203125 C 10.984375 -23.984375 11.472656 -23.765625 11.765625 -23.546875 L 12.25 -23.234375 L 10.515625 -19.734375 C 10.066406 -19.992188 9.570312 -20.125 9.03125 -20.125 C 8.40625 -20.125 7.988281 -19.910156 7.78125 -19.484375 C 7.582031 -19.066406 7.484375 -18.335938 7.484375 -17.296875 L 7.484375 -14.375 L 10.796875 -14.375 L 10.796875 -10.59375 L 7.484375 -10.59375 L 7.484375 0 L 2.515625 0 L 2.515625 -10.59375 L 0.453125 -10.59375 L 0.453125 -14.375 Z M 2.515625 -14.375 "/></g></g></g><g fill="#000000" fill-opacity="1"><g transform="translate(180.881258, 201.399652)"><g><path d="M 2.15625 -22.390625 C 2.738281 -22.972656 3.429688 -23.265625 4.234375 -23.265625 C 5.035156 -23.265625 5.722656 -22.972656 6.296875 -22.390625 C 6.878906 -21.816406 7.171875 -21.128906 7.171875 -20.328125 C 7.171875 -19.523438 6.878906 -18.832031 6.296875 -18.25 C 5.722656 -17.664062 5.035156 -17.375 4.234375 -17.375 C 3.429688 -17.375 2.738281 -17.664062 2.15625 -18.25 C 1.582031 -18.832031 1.296875 -19.523438 1.296875 -20.328125 C 1.296875 -21.128906 1.582031 -21.816406 2.15625 -22.390625 Z M 1.6875 -14.375 L 1.6875 0 L 6.640625 0 L 6.640625 -14.375 Z M 1.6875 -14.375 "/></g></g></g><g fill="#000000" fill-opacity="1"><g transform="translate(190.436295, 201.399652)"><g><path d="M 16.234375 -6.5 L 5.796875 -6.5 C 5.796875 -5.488281 6.125 -4.738281 6.78125 -4.25 C 7.4375 -3.769531 8.144531 -3.53125 8.90625 -3.53125 C 9.71875 -3.53125 10.351562 -3.632812 10.8125 -3.84375 C 11.28125 -4.0625 11.816406 -4.488281 12.421875 -5.125 L 16 -3.328125 C 14.507812 -0.828125 12.023438 0.421875 8.546875 0.421875 C 6.378906 0.421875 4.519531 -0.316406 2.96875 -1.796875 C 1.414062 -3.285156 0.640625 -5.078125 0.640625 -7.171875 C 0.640625 -9.265625 1.414062 -11.054688 2.96875 -12.546875 C 4.519531 -14.046875 6.378906 -14.796875 8.546875 -14.796875 C 10.828125 -14.796875 12.679688 -14.132812 14.109375 -12.8125 C 15.546875 -11.5 16.265625 -9.617188 16.265625 -7.171875 C 16.265625 -6.835938 16.253906 -6.613281 16.234375 -6.5 Z M 5.9375 -9.25 L 11.40625 -9.25 C 11.289062 -10 10.992188 -10.570312 10.515625 -10.96875 C 10.046875 -11.375 9.4375 -11.578125 8.6875 -11.578125 C 7.863281 -11.578125 7.207031 -11.359375 6.71875 -10.921875 C 6.238281 -10.492188 5.976562 -9.9375 5.9375 -9.25 Z M 5.9375 -9.25 "/></g></g></g><g fill="#000000" fill-opacity="1"><g transform="translate(208.42491, 201.399652)"><g><path d="M 2.65625 -1.78125 C 1.3125 -3.25 0.640625 -5.046875 0.640625 -7.171875 C 0.640625 -9.304688 1.3125 -11.109375 2.65625 -12.578125 C 4.007812 -14.054688 5.722656 -14.796875 7.796875 -14.796875 C 9.703125 -14.796875 11.269531 -14.195312 12.5 -13 L 12.5 -24.109375 L 17.46875 -24.109375 L 17.46875 0 L 12.5625 0 L 12.5625 -1.625 L 12.5 -1.625 C 11.269531 -0.257812 9.703125 0.421875 7.796875 0.421875 C 5.722656 0.421875 4.007812 -0.3125 2.65625 -1.78125 Z M 6.875 -9.609375 C 6.238281 -8.972656 5.921875 -8.160156 5.921875 -7.171875 C 5.921875 -6.179688 6.226562 -5.375 6.84375 -4.75 C 7.457031 -4.125 8.269531 -3.8125 9.28125 -3.8125 C 10.25 -3.8125 11.046875 -4.128906 11.671875 -4.765625 C 12.296875 -5.398438 12.609375 -6.203125 12.609375 -7.171875 C 12.609375 -8.160156 12.285156 -8.972656 11.640625 -9.609375 C 11.003906 -10.242188 10.21875 -10.5625 9.28125 -10.5625 C 8.320312 -10.5625 7.519531 -10.242188 6.875 -9.609375 Z M 6.875 -9.609375 "/></g></g></g><g fill="#000000" fill-opacity="1"><g transform="translate(228.655006, 201.399652)"><g/></g></g><g fill="#000000" fill-opacity="1"><g transform="translate(237.397502, 201.399652)"><g><path d="M 16.484375 -12.578125 C 17.828125 -11.109375 18.5 -9.304688 18.5 -7.171875 C 18.5 -5.046875 17.828125 -3.25 16.484375 -1.78125 C 15.140625 -0.3125 13.429688 0.421875 11.359375 0.421875 C 9.453125 0.421875 7.878906 -0.257812 6.640625 -1.625 L 6.59375 -1.625 L 6.59375 0 L 1.6875 0 L 1.6875 -24.109375 L 6.640625 -24.109375 L 6.640625 -13 C 7.878906 -14.195312 9.453125 -14.796875 11.359375 -14.796875 C 13.429688 -14.796875 15.140625 -14.054688 16.484375 -12.578125 Z M 12.296875 -4.75 C 12.921875 -5.375 13.234375 -6.179688 13.234375 -7.171875 C 13.234375 -8.160156 12.910156 -8.972656 12.265625 -9.609375 C 11.617188 -10.242188 10.816406 -10.5625 9.859375 -10.5625 C 8.929688 -10.5625 8.144531 -10.242188 7.5 -9.609375 C 6.851562 -8.972656 6.53125 -8.160156 6.53125 -7.171875 C 6.53125 -6.203125 6.84375 -5.398438 7.46875 -4.765625 C 8.09375 -4.128906 8.890625 -3.8125 9.859375 -3.8125 C 10.867188 -3.8125 11.679688 -4.125 12.296875 -4.75 Z M 12.296875 -4.75 "/></g></g></g><g fill="#000000" fill-opacity="1"><g transform="translate(257.627605, 201.399652)"><g><path d="M 12.59375 -14.375 L 18.296875 -14.375 L 7.015625 7.28125 L 1.296875 7.28125 L 6.25 -2.25 L -0.5625 -14.375 L 5.15625 -14.375 L 9.171875 -7.015625 Z M 12.59375 -14.375 "/></g></g></g><g fill="#000000" fill-opacity="1"><g transform="translate(276.456773, 201.399652)"><g/></g></g><g fill="#000000" fill-opacity="1"><g transform="translate(285.199269, 201.399652)"><g><path d="M 8.90625 0 L -0.78125 -23.125 L 5.15625 -23.125 L 10.984375 -7.9375 L 16.8125 -23.125 L 22.765625 -23.125 L 13.0625 0 Z M 8.90625 0 "/></g></g></g><g fill="#000000" fill-opacity="1"><g transform="translate(308.259231, 201.399652)"><g><path d="M 1.6875 -23.125 L 8.375 -23.125 C 11.59375 -23.125 14.34375 -22.023438 16.625 -19.828125 C 18.90625 -17.628906 20.046875 -14.878906 20.046875 -11.578125 C 20.046875 -8.253906 18.910156 -5.492188 16.640625 -3.296875 C 14.367188 -1.097656 11.613281 0 8.375 0 L 1.6875 0 Z M 6.953125 -4.703125 L 7.765625 -4.703125 C 9.691406 -4.703125 11.265625 -5.351562 12.484375 -6.65625 C 13.710938 -7.957031 14.335938 -9.585938 14.359375 -11.546875 C 14.359375 -13.515625 13.742188 -15.148438 12.515625 -16.453125 C 11.296875 -17.765625 9.710938 -18.421875 7.765625 -18.421875 L 6.953125 -18.421875 Z M 6.953125 -4.703125 "/></g></g></g><g fill="#000000" fill-opacity="1"><g transform="translate(330.030344, 201.399652)"><g><path d="M 8.90625 0 L -0.78125 -23.125 L 5.15625 -23.125 L 10.984375 -7.9375 L 16.8125 -23.125 L 22.765625 -23.125 L 13.0625 0 Z M 8.90625 0 "/></g></g></g></svg>